PathFileType	4	(X/Y/Z)	C:/Users/opensim2020/Desktop/walking_exp_matlab/subject02_walking04_straight_04.trc	
DataRate	CameraRate	NumFrames	NumMarkers	Units	OrigDataRate	OrigDataStartFrame	OrigNumFrames	
100.00	100.00	4	42	mm	100.00	2983	239	
Frame#	Time	LFHD			RFHD			LBHD			RBHD			C7			T10			CLAV			STRN			RBAK			LSHO			LUPA			LELB			LFRM			LWRA			LWRB			LFIN			RSHO			RUPA			RELB			RFRM			RWRA			RWRB			RFIN			LASI			RASI			LPSI			RPSI			LTHI			LKNE			LTIB			LANK			LHEE			LTOE			RTHI			RKNE			RTIB			RANK			RHEE			RTOE			*39			*40			*41			
		X1	Y1	Z1	X2	Y2	Z2	X3	Y3	Z3	X4	Y4	Z4	X5	Y5	Z5	X6	Y6	Z6	X7	Y7	Z7	X8	Y8	Z8	X9	Y9	Z9	X10	Y10	Z10	X11	Y11	Z11	X12	Y12	Z12	X13	Y13	Z13	X14	Y14	Z14	X15	Y15	Z15	X16	Y16	Z16	X17	Y17	Z17	X18	Y18	Z18	X19	Y19	Z19	X20	Y20	Z20	X21	Y21	Z21	X22	Y22	Z22	X23	Y23	Z23	X24	Y24	Z24	X25	Y25	Z25	X26	Y26	Z26	X27	Y27	Z27	X28	Y28	Z28	X29	Y29	Z29	X30	Y30	Z30	X31	Y31	Z31	X32	Y32	Z32	X33	Y33	Z33	X34	Y34	Z34	X35	Y35	Z35	X36	Y36	Z36	X37	Y37	Z37	X38	Y38	Z38	X39	Y39	Z39	X40	Y40	Z40	X41	Y41	Z41	X42	Y42	Z42	

60	0.590	1523.48926	491.22800	1723.34912	1381.02246	504.03040	1705.74500	1541.61414	626.34308	1658.75464	1401.06982	651.29395	1641.38391	1458.97449	693.64404	1515.13867	1441.72888	739.45392	1235.55334	1478.02783	553.89258	1446.40503	1463.68066	497.36453	1279.42725	1383.44214	744.66895	1340.68201	1642.48975	638.34631	1480.43665	1717.52344	671.51062	1277.18970	1723.87329	688.32996	1139.61316	1740.98743	700.13257	1010.79785	1718.02380	663.32477	875.89362	1748.25269	709.40247	888.27185	1752.44336	704.59296	820.86053	1277.77600	604.65912	1489.23071	1187.52502	611.74731	1298.79065	1162.82556	577.44415	1156.45496	1146.23010	519.49969	1049.61572	1166.33203	439.92111	942.04608	1134.69849	484.18677	924.28375	1132.75916	429.10184	876.85846	1585.65222	485.21118	1000.91571	1333.16919	487.39090	965.50812	1503.93860	700.02362	1019.64063	1388.70154	702.42877	1012.46155	1646.31116	497.37039	688.73468	1616.98450	505.63123	483.68491	1617.89124	547.37744	292.04068	1582.15845	531.47357	71.27772	1530.10217	565.12616	43.04055	1597.32166	374.91974	34.76424	1247.54211	586.07104	658.07428	1249.81116	598.51654	458.43073	1247.54944	746.79144	349.96109	1282.77087	887.40332	221.19888	1345.27515	940.47980	210.08992	1274.09436	843.45288	62.70914	1441.55786	594.28497	1797.62354	-3360.26953	2845.15161	1033.80042			 
61	0.600	1525.72705	482.18079	1724.45935	1383.08545	494.88992	1706.94092	1543.78918	617.26965	1660.02734	1403.03113	642.23737	1642.75769	1461.22949	684.49133	1516.44519	1444.60852	730.57971	1236.80701	1479.82703	544.96649	1447.65576	1465.32361	488.39462	1280.45117	1385.81653	735.67383	1341.82373	1644.84888	628.84991	1481.74536	1720.32178	659.68195	1278.05347	1727.12012	674.81592	1140.10620	1744.02832	684.08246	1011.06549	1720.18909	645.34924	876.52826	1751.54700	691.57306	888.60522	1755.86035	685.31671	821.34735	1279.69275	596.27448	1490.09265	1189.64490	603.80493	1299.33972	1166.44104	571.35596	1156.57141	1149.13342	515.95020	1048.92456	1168.51953	438.14410	939.39209	1136.84253	482.47812	922.81311	1134.69287	428.72903	873.98901	1587.63831	476.45905	1000.63281	1334.55151	479.67111	966.56927	1506.99341	691.48865	1021.15363	1392.01733	694.65778	1013.68060	1647.92737	493.30106	688.38336	1618.24512	502.94925	483.41034	1619.01282	546.01495	292.02924	1582.29456	531.66931	71.31313	1530.20947	565.27905	42.99962	1597.36951	375.00552	34.76330	1249.58655	572.83783	659.34320	1250.93774	579.79633	459.92838	1249.59229	728.36237	352.74454	1285.98413	869.80292	225.00806	1349.65222	922.14441	212.07695	1270.44885	825.55341	67.51514	1443.79724	584.94159	1798.89819						 
62	0.610	1527.50500	472.76715	1725.44702	1384.99255	485.67197	1708.10645	1545.71155	608.10345	1661.25928	1405.03015	633.20251	1644.14038	1463.38696	675.37598	1517.79871	1447.48792	721.80615	1238.07605	1481.61035	535.98114	1448.88733	1467.27649	479.74936	1281.69226	1388.55090	727.02307	1343.00452	1646.97546	619.13599	1483.05762	1723.32629	648.06006	1279.26501	1730.89075	661.47406	1141.07690	1747.29956	668.14526	1011.54517	1723.22766	627.31696	878.12878	1754.77844	673.38171	888.96606	1759.25330	665.52374	822.04663	1281.43127	587.92395	1490.91003	1191.97839	596.22443	1300.00757	1169.87500	565.31036	1156.76831	1151.76038	512.72974	1048.25244	1169.89294	435.79788	937.28571	1139.20190	481.18958	921.54663	1136.42957	428.40518	871.39105	1589.64026	467.74335	1000.33838	1335.55237	471.99564	967.72205	1510.04749	682.83685	1022.54645	1395.37402	687.03925	1015.00995	1649.09290	489.39740	687.73627	1619.23157	500.26642	483.10135	1619.84668	544.92499	292.01144	1582.35266	531.72723	71.28061	1530.42188	565.64386	43.20255	1597.37134	375.10468	34.74384	1251.46631	559.78491	660.81604	1252.37183	561.17987	462.08035	1251.94702	709.78070	355.24933	1289.25916	851.38318	227.73817	1353.67322	902.57990	212.38651	1266.47571	806.51221	71.62791	1445.79565	575.64697	1800.12439						 
63	0.620	1529.11108	463.55258	1726.29382	1386.74597	476.56281	1709.20911	1547.58875	598.93756	1662.50037	1406.76819	624.09186	1645.49561	1465.44971	666.30078	1519.15906	1450.33777	713.15857	1239.42224	1483.27124	527.07428	1450.01147	1468.75488	470.94528	1282.47705	1391.45447	718.47015	1344.09680	1648.84290	609.21899	1484.36584	1726.13513	636.26782	1280.48462	1734.34070	647.81989	1141.94067	1750.88074	652.05298	1012.29956	1726.01978	608.94922	879.81195	1757.87622	654.79620	889.56927	1762.56934	645.30579	823.03699	1283.13147	579.55371	1491.76086	1194.74109	589.70758	1300.53455	1173.09229	559.24762	1157.01746	1153.97778	507.83401	1047.80225	1171.63220	433.80179	935.26245	1141.04358	479.53622	920.36932	1138.00452	428.09543	869.05994	1591.35596	459.13916	999.86627	1336.32275	464.47372	968.99518	1512.99976	674.54169	1023.95782	1398.73560	679.55591	1016.45325	1650.65613	485.37943	687.59192	1620.23438	497.88687	482.86646	1620.47424	543.94617	292.02887	1582.29456	531.69598	71.16122	1530.45483	565.75745	43.22021	1597.38477	375.19568	34.71227	1253.18750	546.69159	662.45190	1253.89490	542.80212	464.41901	1254.48523	691.10559	357.29343	1292.36401	832.17615	228.99544	1357.89966	882.34460	211.30202	1262.46130	785.96588	75.41415	1447.84241	566.38214	1801.46936						 
